<svg  xmlns="http://www.w3.org/2000/svg" >
  
  <symbol id="slider-arrow-left"  viewBox="0 0 43 43" fill="none">
      <path d="M17.2789 21.5326C17.2781 21.3981 17.3039 21.2648 17.3547 21.1403C17.4056 21.0158 17.4805 20.9025 17.5752 20.807L23.7067 14.6756C23.8991 14.4832 24.1601 14.3751 24.4322 14.3751C24.7044 14.3751 24.9654 14.4832 25.1578 14.6756C25.3502 14.868 25.4583 15.129 25.4583 15.4011C25.4583 15.6733 25.3502 15.9343 25.1578 16.1267L19.7417 21.5326L25.1476 26.9385C25.315 27.1339 25.4025 27.3854 25.3925 27.6426C25.3826 27.8998 25.276 28.1438 25.094 28.3258C24.912 28.5077 24.668 28.6144 24.4108 28.6243C24.1536 28.6342 23.9022 28.5468 23.7067 28.3793L17.5752 22.2479C17.3865 22.0576 17.28 21.8007 17.2789 21.5326Z" fill="#464646"/>
  </symbol>

  <symbol id="slider-arrow-right" viewBox="0 0 43 43" fill="none">
    <path d="M25.721 21.5326C25.7218 21.3981 25.696 21.2648 25.6452 21.1403C25.5943 21.0158 25.5194 20.9025 25.4247 20.807L19.2933 14.6756C19.1008 14.4832 18.8398 14.3751 18.5677 14.3751C18.2956 14.3751 18.0346 14.4832 17.8422 14.6756C17.6497 14.868 17.5416 15.129 17.5416 15.4011C17.5416 15.6733 17.6497 15.9343 17.8422 16.1267L23.2583 21.5326L17.8524 26.9385C17.685 27.1339 17.5975 27.3854 17.6074 27.6426C17.6174 27.8998 17.724 28.1438 17.906 28.3258C18.088 28.5077 18.3319 28.6144 18.5891 28.6243C18.8463 28.6342 19.0978 28.5468 19.2933 28.3793L25.4247 22.2479C25.6135 22.0576 25.7199 21.8007 25.721 21.5326Z" fill="#464646"/>
  </symbol>

  <symbol id="zoom-in" viewBox="0 0 32 34" fill="none">
    <rect width="32" height="34" rx="8" fill="white" fill-opacity="0.5"/>
    <path fill-rule="evenodd" clip-rule="evenodd" d="M23.2 16.1C23.2 16.3387 23.2948 16.5676 23.4636 16.7364C23.6324 16.9052 23.8613 17 24.1 17C24.3387 17 24.5676 16.9052 24.7364 16.7364C24.9052 16.5676 25 16.3387 25 16.1V8.9C25 8.66131 24.9052 8.43239 24.7364 8.2636C24.5676 8.09482 24.3387 8 24.1 8H16.9C16.6613 8 16.4324 8.09482 16.2636 8.2636C16.0948 8.43239 16 8.66131 16 8.9C16 9.13869 16.0948 9.36761 16.2636 9.5364C16.4324 9.70518 16.6613 9.8 16.9 9.8H23.2V16.1ZM8.8 17.9C8.8 17.6613 8.70518 17.4324 8.5364 17.2636C8.36761 17.0948 8.13869 17 7.9 17C7.66131 17 7.43239 17.0948 7.2636 17.2636C7.09482 17.4324 7 17.6613 7 17.9V25.1C7 25.3387 7.09482 25.5676 7.2636 25.7364C7.43239 25.9052 7.66131 26 7.9 26H15.1C15.3387 26 15.5676 25.9052 15.7364 25.7364C15.9052 25.5676 16 25.3387 16 25.1C16 24.8613 15.9052 24.6324 15.7364 24.4636C15.5676 24.2948 15.3387 24.2 15.1 24.2H8.8V17.9Z" fill="#464646"/>
  </symbol>
  
  <symbol id='checkMark' viewBox="0 0 11 8" fill="none">
    <path fill-rule="evenodd" clip-rule="evenodd" d="M10.3078 0.192233C10.4309 0.315475 10.5 0.482547 10.5 0.656734C10.5 0.830922 10.4309 0.997985 10.3078 1.12124L3.95378 7.47526C3.83053 7.59831 3.66346 7.66746 3.48928 7.66746C3.31509 7.66746 3.14802 7.59831 3.02478 7.47526L0.17642 4.6269C0.0603118 4.5023 -0.00289542 4.33749 0.000101931 4.1672C0.00310804 3.99691 0.0720908 3.83444 0.192528 3.714C0.312956 3.59357 0.475435 3.52459 0.645723 3.52158C0.816011 3.51858 0.980813 3.58179 1.10542 3.6979L3.48928 6.08176L9.3788 0.192233C9.50202 0.0691404 9.66907 0 9.8433 0C10.0174 0 10.1846 0.0691404 10.3078 0.192233Z" fill="#32312F"/>
  </symbol>

  <symbol id="like" viewBox="0 0 17 15" fill="none">
    <path d="M15.1911 1.4366C14.3369 0.510211 13.1649 0 11.8907 0C10.9383 0 10.066 0.301125 9.29811 0.894931C8.91064 1.19464 8.55954 1.56138 8.25 1.98935C7.94056 1.56147 7.58936 1.19464 7.20177 0.894931C6.43397 0.301125 5.56172 0 4.60927 0C3.33506 0 2.16295 0.510211 1.30882 1.4366C0.4649 2.35215 0 3.60296 0 4.95873C0 6.35414 0.52004 7.63154 1.6365 8.97874C2.63526 10.1839 4.07073 11.4072 5.73304 12.8238C6.30068 13.3076 6.94408 13.8559 7.61214 14.44C7.78866 14.5946 8.01535 14.6798 8.25 14.6797C8.48477 14.6797 8.71136 14.5946 8.8876 14.4403C9.55566 13.856 10.1994 13.3074 10.7673 12.8234C12.4294 11.407 13.8648 10.1839 14.8636 8.97861C15.9801 7.63157 16.5 6.35418 16.5 4.9586C16.5 3.60296 16.0351 2.35215 15.1911 1.4366Z" fill="currentColor"/>
  </symbol>

  <symbol id="right-icon" viewBox="0 0 6 9" fill="none">
    <path d="M5.16595 4.47946C5.16644 4.56441 5.15016 4.64861 5.11804 4.72724C5.08592 4.80588 5.0386 4.8774 4.97878 4.93771L1.1063 8.81019C0.984764 8.93172 0.819929 9 0.648054 9C0.47618 9 0.311345 8.93172 0.189811 8.81019C0.068277 8.68866 5.67839e-09 8.52382 7.72797e-09 8.35195C9.77756e-09 8.18007 0.068277 8.01524 0.189811 7.8937L3.6105 4.47946L0.196265 1.06523C0.0905294 0.941758 0.0352778 0.782938 0.0415519 0.620502C0.0478261 0.458068 0.115164 0.303982 0.230109 0.189037C0.345053 0.0740929 0.499138 0.00675583 0.661574 0.000481613C0.824009 -0.00579261 0.982829 0.0494576 1.1063 0.155193L4.97878 4.02768C5.09801 4.14789 5.16524 4.31015 5.16595 4.47946Z" fill="currentColor"/>
  </symbol>
</svg>